<svg xmlns="http://www.w3.org/2000/svg" viewBox="0 0 64 64"><path fill="#3B7EB0" d="M0 0h64v64H0z"/><path fill="#FFF" d="M14 14h32v36H14z"/><path fill="#3B7EB0" d="M22 42h8v4h-8z"/><path opacity=".5" fill="#3B7EB0" d="M32 42h8v4h-8z"/><path fill="#3B7EB0" d="M14 14h4v4h-4z"/><path opacity=".5" fill="#3B7EB0" d="M16 14h2v36h-2z"/><path d="M38.912 34.1a2.178 2.178 0 00-2.063-1.51h-1.085v-3.257a1.086 1.086 0 00-1.086-1.085h-6.514v-2.171h2.171a1.086 1.086 0 001.086-1.086V22.82h2.171a2.171 2.171 0 002.172-2.172v-.445A8.668 8.668 0 0138.912 34.1m-7.49 2.758a8.673 8.673 0 01-7.6-8.61c0-.672.086-1.324.228-1.942l5.2 5.2v1.085a2.171 2.171 0 002.171 2.172m1.086-17.37A10.856 10.856 0 0021.65 28.248a10.856 10.856 0 0010.857 10.856 10.856 10.856 0 0010.856-10.856 10.856 10.856 0 00-10.856-10.856z" fill="#3b7eb0"/></svg>