<svg xmlns="http://www.w3.org/2000/svg" viewBox="0 0 16 16"><path fill="#FFF" d="M1 1h14v14H1z"/><path fill="#999" d="M14 2v12H2V2h12m1-1H1v14h14V1z"/><path d="M10.4 10.193a.816.816 0 00-.773-.566H9.22v-1.22A.407.407 0 008.814 8H6.373v-.814h.813a.407.407 0 00.407-.406v-.814h.814a.814.814 0 00.813-.813v-.167a3.248 3.248 0 011.18 5.207m-2.807 1.033a3.25 3.25 0 01-2.762-3.954L6.78 9.22v.407a.814.814 0 00.813.814M8 3.932A4.068 4.068 0 003.932 8 4.068 4.068 0 008 12.068 4.068 4.068 0 0012.068 8 4.068 4.068 0 008 3.932z" fill="#666"/></svg>